<svg xmlns="http://www.w3.org/2000/svg" viewBox="0 20 377.8 63"><defs><style>      .st0 {        fill: #302927;      }      .st1 {        fill: #fdb515;      }      .st2 {        fill: #7f7775;      }      .st3 {        fill: none;        stroke: #231f20;        stroke-dasharray: 3;        stroke-width: .2px;      }      .st4 {        display: none;      }    </style></defs><g id="Layer_1"><g id="ExperiencePoint_wordmark2" data-name="ExperiencePoint_wordmark"><path class="st2" d="M349.7,39.2c-1.5,0-2.7-1.2-2.7-2.6s1.2-2.7,2.7-2.7,2.6,1.2,2.6,2.7-1.2,2.6-2.6,2.6ZM349.7,34.3c-1.3,0-2.3,1-2.3,2.3s1,2.3,2.3,2.3,2.3-1,2.3-2.3-1-2.3-2.3-2.3ZM349.7,35.2c.9,0,1,.5,1,.8,0,.4-.3.7-.8.8.3.1.5.4.6.6l.4.6h-.5l-.4-.7c0,0-.2-.5-.7-.5h-.3v1.2h-.4v-2.8h1.1ZM349,36.5h.5c.7,0,.8-.2.8-.5s-.2-.5-.8-.5h-.5v.9Z"></path><g><path class="st0" d="M45,36.2h-15.1v10.8h14.5v4.5h-14.5v11.1h15.5v4.6h-20.6V31.7h20.2v4.5Z"></path><path class="st0" d="M62.5,55.4l10.3,11.9h-5.9l-7.3-8.4-6.9,8.4h-5.8l9.9-11.9-9.9-11.5h5.8l6.9,8,6.7-8h5.9l-9.6,11.5Z"></path><path class="st0" d="M82.6,43.8c.3,0,5.2,0,8.3,2,4.2,2.7,4.8,7.4,4.8,9.7,0,6.8-4.6,12.1-11.6,12.1s-3.9-.6-5-1v12.6h-4.7v-35.4h8.1ZM79.2,48.2v14.4c2.1,1.1,4.1,1.1,4.5,1.1,4.1,0,7.3-3.1,7.3-8.1,0-7.4-6.3-7.4-8.5-7.4h-3.3Z"></path><path class="st0" d="M119.1,64.9c-1.6,1-4.3,2.8-9.2,2.8s-5.3-.4-8.1-3.3c-3.1-3.2-3.5-6.8-3.5-9,0-7.3,4.6-12,10.9-12s9.2,3.9,10,9.1c.3,1.6.3,2.6.3,3.5h-16.5c.2,3.5,2.5,7.3,7.6,7.3s6-1,8.5-2.9v4.5ZM114.9,53.2c0-.9-.4-5.8-5.7-5.8s-3.2.6-4.5,2c-1.2,1.4-1.5,2.8-1.6,3.8h11.8Z"></path><path class="st0" d="M127.6,43.8v5.4c1.5-2.3,3.7-5.8,7-5.8s2.8,0,5.5,2.7l-2.5,4.1c-.6-.6-2.7-2.3-4.5-2.3s-5.5,1.9-5.5,7.2v12.2h-4.6v-23.4h4.6Z"></path><path class="st0" d="M147.2,36.7c0,1.5-1.3,2.8-2.8,2.8s-2.7-1.6-2.7-2.8,1.1-2.7,2.7-2.7,2.8,1.3,2.8,2.7ZM146.8,67.2h-4.6v-23.4h4.6v23.4Z"></path><path class="st0" d="M171.7,64.9c-1.6,1-4.3,2.8-9.2,2.8s-5.3-.4-8.1-3.3c-3.1-3.2-3.5-6.8-3.5-9,0-7.3,4.6-12,10.9-12s9.2,3.9,10,9.1c.3,1.6.3,2.6.3,3.5h-16.5c.2,3.5,2.5,7.3,7.6,7.3s6-1,8.5-2.9v4.5ZM167.5,53.2c0-.9-.4-5.8-5.7-5.8s-3.2.6-4.5,2c-1.3,1.4-1.5,2.8-1.6,3.8h11.8Z"></path><path class="st0" d="M180.4,43.8v3c2.1-2.3,4.8-3.4,7-3.4s4.7.5,6.6,3.8c.7,1.1,1.3,2.5,1.3,6.8v13.3h-4.7v-13.3c0-2.5,0-3.8-1.2-5.2-.9-1-1.9-1.5-3.5-1.5s-4.1,1.3-5.5,3.3v16.7h-4.7v-23.4h4.7Z"></path><path class="st0" d="M217.6,49.9c-1.3-.8-3.5-2.2-6.5-2.2-4.8,0-7.1,4.1-7.1,7.8s2.3,7.8,8,7.8,4.4-.8,6.2-1.6v4.6c-1,.4-3.5,1.4-6.8,1.4-8.1,0-12-5.6-12-12s3.2-12.3,11.6-12.3,5,.8,6.8,1.6v5Z"></path><path class="st0" d="M241.6,64.9c-1.6,1-4.3,2.8-9.2,2.8s-5.3-.4-8.1-3.3c-3.1-3.2-3.5-6.8-3.5-9,0-7.3,4.6-12,10.9-12s9.2,3.9,10,9.1c.3,1.6.3,2.6.3,3.5h-16.5c.2,3.5,2.5,7.3,7.6,7.3s6-1,8.5-2.9v4.5ZM237.4,53.2c0-.9-.4-5.8-5.7-5.8s-3.2.6-4.5,2c-1.3,1.4-1.5,2.8-1.6,3.8h11.8Z"></path><path class="st0" d="M255.2,31.7c4.2,0,7.5,0,10.5,3,1.6,1.6,2.8,3.8,2.8,7s-.3,4.6-3,7.2c-2.2,2.1-5.1,2.9-10.6,2.9h-3.8v15.4h-5.1V31.7h9.2ZM251.2,36.2v11.1h4.1c2,0,4.1,0,5.6-.9,1.4-.8,2.3-2.4,2.3-4.7s-.3-2.8-1.6-4c-1.6-1.5-3-1.5-6.6-1.5h-3.9Z"></path><path class="st0" d="M293.3,55.6c0,8.3-6.8,12.1-12.6,12.1s-12.5-5.5-12.5-12.2,4.8-12.1,12.6-12.1,12.4,4.8,12.4,12.2ZM273,55.6c0,5.9,4.4,8,7.8,8s7.7-3.3,7.7-8-4.6-8-7.9-8-7.6,2.9-7.6,8Z"></path></g><g><path class="st0" d="M311.9,43.8v3c2.1-2.3,4.8-3.4,7-3.4s4.7.5,6.6,3.8c.7,1.1,1.3,2.5,1.3,6.8v13.3h-4.7v-13.3c0-2.5,0-3.8-1.2-5.2-.9-1-1.9-1.5-3.5-1.5s-4.1,1.3-5.5,3.3v16.7h-4.7v-23.4h4.7Z"></path><path class="st0" d="M337.5,43.8h7.4v4.2h-7.4v10.2c0,2.9.1,3.4.8,4.3.9.9,2,1,2.5,1,.9,0,2.7-.1,5.3-1.7v4.3c-2.2,1.2-4.6,1.6-6,1.6s-4.5-.7-6.1-3c-1.1-1.7-1.1-4.2-1.1-6.4v-10.4h-4.1v-.5l8.7-8.5v4.8Z"></path></g><g><path class="st1" d="M302.2,36.7c0,1.5-1.3,2.8-2.8,2.8s-2.7-1.6-2.7-2.8,1.1-2.7,2.7-2.7,2.8,1.3,2.8,2.7Z"></path><rect class="st0" x="297.1" y="43.8" width="4.6" height="23.4"></rect></g></g></g><g id="guides" class="st4"><g><polyline class="st3" points="-8.4 0 67.4 0 384.8 0"></polyline><line class="st3" x1="-8.4" y1="24.4" x2="384.8" y2="24.4"></line><line class="st3" x1="-8.4" y1="79.1" x2="384.8" y2="79.1"></line><line class="st3" x1="-8.4" y1="103.4" x2="384.8" y2="103.4"></line><g><line class="st3" x1="24.4" y1="-4.3" x2="24.4" y2="107.4"></line><line class="st3" y1="-4.3" y2="107.4"></line></g><g><line class="st3" x1="377.8" y1="-4.3" x2="377.8" y2="107.4"></line><line class="st3" x1="353.4" y1="-4.3" x2="353.4" y2="107.4"></line></g></g></g></svg>