<svg width="497" height="92" viewBox="0 0 497 92" fill="none" xmlns="http://www.w3.org/2000/svg">
<g clip-path="url(#clip0_2293_43120)">
<path d="M27.5271 10.1611C17.4661 10.1611 11.0592 16.7683 11.0592 16.7683C9.1571 19.9718 7.25503 24.8271 22.5216 24.8271C23.4226 24.8271 24.4237 24.8271 25.4748 24.777C33.3334 24.5267 40.3911 22.3744 46.3976 17.8695C39.3399 12.0632 32.9329 10.1611 27.5271 10.1611Z" fill="#8D98C4"></path>
<path d="M65.2182 10.1611C59.8624 10.1611 53.4053 12.0632 46.3477 17.8695C52.3542 22.3244 59.4119 24.5267 67.2704 24.777C68.3215 24.8271 69.3226 24.8271 70.2236 24.8271C85.4902 24.8271 83.5881 19.9718 81.6861 16.7683C81.7361 16.7683 75.2791 10.1611 65.2182 10.1611Z" fill="#6676B2"></path>
<path d="M46.397 17.8694C66.2185 1.50163 81.1848 16.2176 81.6854 16.7682C81.0347 15.7171 80.434 15.0163 80.434 15.0163C71.9748 5.80631 59.8116 0 46.2969 0C32.7822 0 20.8192 5.80631 12.36 15.0163C12.36 15.0163 11.7093 15.7171 11.0586 16.8183C11.1086 16.7182 26.2251 1.25136 46.397 17.8694Z" fill="#41539E"></path>
<path d="M21.6708 60.8164C17.316 86.6445 38.3889 91.9502 38.3889 91.9502C38.489 91.9502 38.5891 91.9502 38.6893 91.9502C42.6436 91.9502 47.699 90.7489 38.1387 75.4323C33.9341 68.8251 28.5282 63.7696 21.6708 60.8164Z" fill="#8D98C4"></path>
<path d="M6.90313 27.5303C5.10117 27.5303 3.89986 29.2321 3.04894 30.7838C3.04894 30.7838 -2.90754 51.6565 21.6692 60.8165C22.5201 53.3583 20.8683 46.2006 17.2143 39.243C12.3591 30.1832 9.15558 27.5303 6.90313 27.5303Z" fill="#6676B2"></path>
<path d="M21.6699 60.8158C-2.40625 51.8061 2.84947 31.534 3.04968 30.7832C2.44903 31.8844 2.1487 32.7854 2.1487 32.7854C-1.60538 44.7484 -0.554233 58.163 6.20311 69.8757C12.9605 81.5884 23.9224 89.0465 36.1857 91.7495C36.1857 91.7495 37.1367 91.9497 38.3881 91.9497C38.288 91.9497 17.3152 86.5939 21.6699 60.8158Z" fill="#41539E"></path>
<path d="M71.0736 60.8164C64.1661 63.7696 58.8103 68.8251 54.6558 75.4823C45.0954 90.7489 50.1509 92.0003 54.1052 92.0003C54.2053 92.0003 54.3054 92.0003 54.4055 92.0003C54.3555 91.9502 75.4284 86.6445 71.0736 60.8164Z" fill="#6676B2"></path>
<path d="M85.8394 27.5303C83.5869 27.5303 80.3334 30.2332 75.5282 39.2931C71.8742 46.2006 70.1724 53.4084 71.0733 60.8665C95.6 51.7066 89.6936 30.8339 89.6936 30.8339C88.8426 29.2321 87.6413 27.5303 85.8394 27.5303Z" fill="#8D98C4"></path>
<path d="M71.0736 60.8158C95.1498 51.8061 89.8941 31.534 89.6939 30.7832C90.2945 31.8844 90.5949 32.7854 90.5949 32.7854C94.3489 44.7484 93.2978 58.163 86.5405 69.8757C79.7831 81.5884 68.8212 89.0465 56.5579 91.7495C56.5579 91.7495 55.6068 91.9497 54.3555 91.9497C54.4556 91.8996 75.4284 86.5939 71.0736 60.8158Z" fill="#41539E"></path>
<path d="M85.6423 86.3892H84.1406V85.8887H87.7445V86.3892H86.2429V90.7439H85.6423V86.3892Z" fill="#41539E"></path>
<path d="M92.3992 88.5911C92.3491 87.9404 92.3491 87.0895 92.3491 86.4889H92.299C92.1489 87.0395 91.9487 87.6902 91.6483 88.3409L90.7974 90.6934H90.2969L89.496 88.3409C89.2958 87.6401 89.0956 87.0394 88.9454 86.4388C88.9454 87.0394 88.8953 87.8403 88.8453 88.5911L88.6951 90.6434H88.1445L88.4949 85.7881H89.2958L90.0966 88.1406C90.2969 88.7413 90.447 89.2919 90.5972 89.7924H90.6473C90.7474 89.2919 90.9476 88.7413 91.1478 88.1406L91.9987 85.7881H92.7996L93.0999 90.6434H92.4492L92.3992 88.5911Z" fill="#41539E"></path>
<path d="M137.104 27.0775V42.9878H144.286C148.326 42.9878 153.264 42.7384 154.361 42.5389L154.561 42.7883C154.211 44.7833 152.815 45.9803 150.122 45.9803H137.154V65.9304H133.164V24.0352H154.81V27.1274L137.104 27.0775Z" fill="#41539E"></path>
<path d="M188.176 63.2867C188.176 65.182 186.58 66.379 184.785 66.379C182.191 66.379 181.393 63.9351 181.393 61.7406V59.4463H181.194C178.151 62.9376 174.361 66.8777 169.423 66.8777C167.777 66.8777 166.081 66.2792 164.835 65.1321C162.74 63.2867 162.391 60.4937 162.391 57.8503V34.6084H166.081V58.1994C166.081 61.6907 168.076 63.2368 170.421 63.2368C174.76 63.2368 178.45 58.8478 181.144 55.8054V34.6084H184.835V60.9924C184.835 62.1396 185.383 63.2867 186.68 63.2867C187.079 63.2867 187.578 63.187 187.927 62.9875L188.176 63.2867Z" fill="#41539E"></path>
<path d="M199.746 58.3988C199.746 62.0896 201.741 64.0348 205.481 64.0348C207.227 64.0348 208.823 63.7355 210.12 62.7879L210.369 62.8876C210.419 63.1869 210.419 63.3365 210.419 63.536C210.419 66.1295 206.429 66.7779 204.534 66.7779C199.197 66.7779 196.055 63.8851 196.055 58.4986V37.4512H192.614L192.414 37.152C192.713 36.2043 193.062 35.7056 194.658 34.6083L199.347 31.2168H199.646V34.6083H209.122V37.4512H199.696L199.746 58.3988Z" fill="#41539E"></path>
<path d="M241.743 63.2867C241.743 65.182 240.147 66.379 238.351 66.379C235.758 66.379 234.96 63.9351 234.96 61.7406V59.4463H234.76C231.718 62.9376 227.927 66.8777 222.989 66.8777C221.344 66.8777 219.648 66.2792 218.401 65.1321C216.306 63.2867 215.957 60.4937 215.957 57.8503V34.6084H219.648V58.1994C219.648 61.6907 221.643 63.2368 223.987 63.2368C228.326 63.2368 232.017 58.8478 234.71 55.8054V34.6084H238.401V60.9924C238.401 62.1396 238.95 63.2867 240.246 63.2867C240.645 63.2867 241.144 63.187 241.493 62.9875L241.743 63.2867Z" fill="#41539E"></path>
<path d="M263.739 37.6013C263.191 37.4018 262.792 37.3519 261.993 37.3519C258.851 37.3519 256.058 40.8432 253.565 44.5838V65.8806H249.874V39.4965C249.874 38.3494 249.325 37.2023 248.028 37.2023C247.629 37.2023 247.131 37.302 246.782 37.5015L246.582 37.2522C246.582 35.3569 248.178 34.1599 249.974 34.1599C252.567 34.1599 253.066 36.6038 253.066 38.7983V41.0926H253.265C256.058 37.2023 258.502 33.6611 262.742 33.6611C263.191 33.6611 263.689 33.711 264.188 33.8606L263.739 37.6013Z" fill="#41539E"></path>
<path d="M279.048 36.4043C273.113 36.4043 270.619 40.9928 270.17 47.0776L286.779 44.0352C286.729 39.3968 283.786 36.4043 279.048 36.4043ZM290.37 46.13L270.021 49.7709C270.12 57.3519 274.46 63.6861 282.639 63.6861C284.933 63.6861 287.078 63.1374 288.874 61.5414L289.173 61.7409C289.223 61.9903 289.223 62.2896 289.223 62.4891C289.223 65.9803 284.734 66.8282 281.991 66.8282C272.016 66.8282 266.43 58.9978 266.43 49.6212C266.43 41.5913 270.769 33.6611 279.647 33.6611C286.18 33.6611 290.37 38.5489 290.37 44.6337C290.42 45.1325 290.42 45.5315 290.37 46.13Z" fill="#41539E"></path>
<path d="M304.038 27.0775V42.9878H311.22C315.26 42.9878 320.197 42.7384 321.295 42.5389L321.494 42.7883C321.145 44.7833 319.749 45.9803 317.055 45.9803H304.088V65.9304H300.098V24.0352H321.744V27.1274L304.038 27.0775Z" fill="#41539E"></path>
<path d="M338.052 36.4043C332.117 36.4043 329.623 40.9928 329.174 47.0776L345.783 44.0352C345.783 39.3968 342.79 36.4043 338.052 36.4043ZM349.374 46.13L329.025 49.7709C329.124 57.3519 333.464 63.6861 341.643 63.6861C343.937 63.6861 346.082 63.1374 347.877 61.5414L348.177 61.7409C348.227 61.9903 348.227 62.2896 348.227 62.4891C348.227 65.9803 343.738 66.8282 340.995 66.8282C331.02 66.8282 325.434 58.9978 325.434 49.6212C325.434 41.5913 329.773 33.6611 338.651 33.6611C345.184 33.6611 349.374 38.5489 349.374 44.6337C349.424 45.1325 349.424 45.5315 349.374 46.13Z" fill="#41539E"></path>
<path d="M372.415 37.6013C371.866 37.4018 371.467 37.3519 370.669 37.3519C367.527 37.3519 364.734 40.8432 362.24 44.5838V65.8806H358.55V39.4965C358.55 38.3494 358.001 37.2023 356.704 37.2023C356.305 37.2023 355.806 37.302 355.457 37.5015L355.258 37.2522C355.258 35.3569 356.854 34.1599 358.649 34.1599C361.243 34.1599 361.742 36.6038 361.742 38.7983V41.0926H361.941C364.734 37.2023 367.178 33.6611 371.417 33.6611C371.866 33.6611 372.365 33.711 372.864 33.8606L372.415 37.6013Z" fill="#41539E"></path>
<path d="M402.591 66.3791C399.997 66.3791 399.199 63.9352 399.199 61.7407V34.6086H402.89V60.9926C402.89 62.1397 403.339 63.2869 404.685 63.2869C405.084 63.2869 405.533 63.1871 405.882 62.9876L406.082 63.237C406.032 65.1821 404.386 66.3791 402.591 66.3791ZM401.144 26.5288C399.548 26.5288 398.551 25.4814 398.551 23.9851C398.551 22.4889 399.548 21.3916 401.144 21.3916C402.74 21.3916 403.638 22.439 403.638 23.9851C403.638 25.5313 402.69 26.5288 401.144 26.5288Z" fill="#41539E"></path>
<path d="M417.306 66.3791C414.712 66.3791 413.914 63.9352 413.914 61.7407V21.3916H417.605V60.9926C417.605 62.1397 418.054 63.2869 419.4 63.2869C419.799 63.2869 420.248 63.1871 420.597 62.9876L420.797 63.237C420.747 65.1821 419.051 66.3293 417.306 66.3791Z" fill="#41539E"></path>
<path d="M432.016 66.3791C429.423 66.3791 428.625 63.9352 428.625 61.7407V34.6086H432.316V60.9926C432.316 62.1397 432.765 63.2869 434.111 63.2869C434.51 63.2869 434.959 63.1871 435.308 62.9876L435.508 63.237C435.458 65.1821 433.762 66.3791 432.016 66.3791ZM430.57 26.5288C428.974 26.5288 427.977 25.4814 427.977 23.9851C427.977 22.4889 428.974 21.3916 430.57 21.3916C432.166 21.3916 433.064 22.439 433.064 23.9851C433.064 25.5313 432.116 26.5288 430.57 26.5288Z" fill="#41539E"></path>
<path d="M471.02 78.1994C469.124 78.1994 465.783 77.8004 465.783 75.2568C465.783 75.0074 465.833 74.7081 465.883 74.5086L466.082 74.2593C467.528 75.1071 469.474 75.2568 471.07 75.2568C478.202 75.2568 481.693 70.6682 481.693 63.7855V58.4488H481.494C478.351 61.8902 474.91 65.8802 470.122 65.8802C468.526 65.8802 466.88 65.2817 465.683 64.1346C463.688 62.2892 463.289 59.4962 463.289 56.8528V34.6084H466.98V57.2518C466.98 60.0448 468.277 62.2892 471.169 62.2892C475.159 62.2892 478.701 57.8004 481.494 54.8578V34.6084H485.184V63.3366C485.234 72.0648 479.947 78.1994 471.02 78.1994Z" fill="#41539E"></path>
<path d="M393.166 62.9374L392.916 62.8377C391.62 63.7853 390.024 64.0846 388.278 64.0846C384.537 64.0846 382.542 62.1394 382.542 58.4486V37.501H391.969V34.6581H382.492V31.2666H382.193L378.852 33.6606V58.5484C378.852 63.9349 381.994 66.8277 387.33 66.8277C389.226 66.8277 393.216 66.1793 393.216 63.5858C393.216 63.3863 393.216 63.1868 393.166 62.9374Z" fill="#41539E"></path>
<path d="M456.506 62.9374L456.256 62.8377C454.959 63.7853 453.363 64.0846 451.618 64.0846C447.877 64.0846 445.882 62.1394 445.882 58.4486V37.501H455.309V34.6581H445.832V31.2666H445.533L442.191 33.6606V58.5484C442.191 63.9349 445.334 66.8277 450.67 66.8277C452.565 66.8277 456.556 66.1793 456.556 63.5858C456.556 63.3863 456.556 63.1868 456.506 62.9374Z" fill="#41539E"></path>
<path d="M489.274 21.092H487.777V20.5933H491.368V21.092H489.872V25.4312H489.274V21.092Z" fill="#41539E"></path>
<path d="M496.005 23.2867C495.955 22.6383 495.955 21.7904 495.955 21.1919H495.905C495.756 21.7405 495.556 22.3889 495.257 23.0373L494.409 25.3814H493.91L493.112 23.0373C492.913 22.339 492.713 21.7405 492.564 21.142C492.564 21.7405 492.514 22.5385 492.464 23.2867L492.314 25.3316H491.766L492.115 20.4937H492.913L493.711 22.8378C493.91 23.4363 494.06 23.9849 494.21 24.4837H494.259C494.359 23.9849 494.559 23.4363 494.758 22.8378L495.606 20.4937H496.404L496.703 25.3316H496.055L496.005 23.2867Z" fill="#41539E"></path>
</g>
<defs>
<clipPath id="clip0_2293_43120">
<rect width="497" height="92" fill="white"></rect>
</clipPath>
</defs>
</svg>