<svg version="1.1" id="Layer_1" xmlns="http://www.w3.org/2000/svg" x="0" y="0" viewBox="0 0 1096.4 366.7" xml:space="preserve"><style>.st0{fill:#fff}</style><path class="st0" d="M1028.3 140.4h30.6c3.9 0 7-3.2 7-7.1v-4.6c0-3.9-3.1-7.1-7-7.1h-30.6c-3.9 0-7-3.2-7-7.1V72.9c0-19.5 6-30 18.2-30 11.9 0 14.5 12 14.5 25.5 0 2.9-.2 5.8-.4 8.4-.4 4.1 2.9 7.7 7 7.7h21c1.2 0 2.5-.3 3.5-1 6.9-4.4 11.4-12.1 11.4-21.2 0-21.4-16.7-34.1-52.8-34.1-46.5 0-82.2 25.5-82.2 79.8v6.4c0 3.1-2 5.8-5 6.8l-16.9 5.2c-2.9.9-5 3.6-5 6.8v.1c0 3.9 3.1 7.1 7 7.1h12.8c3.9 0 7 3.2 7 7.1V293c0 10.6-1.8 13.5-12.3 14.8-3.5.4-6.2 3.4-6.2 7 0 3.9 3.1 7.1 7 7.1h91.4c3.9 0 7-3.2 7-7.1v-.1c0-3.5-2.6-6.6-6.1-7-16.8-2.1-20.9-5-20.9-19.2v-141c0-4 3.1-7.1 7-7.1M714.8 292.9c0 10.6-1.8 13.5-12.6 14.8-3.4.4-5.9 3.3-5.9 6.7v.6c0 3.7 3 6.7 6.7 6.7h82.7c3.7 0 6.7-3 6.7-6.7v-.6c0-3.4-2.6-6.3-5.9-6.7-10.5-1.3-11.8-4.2-11.8-14.8V169.7c0-2.4 1.2-4.6 3.3-5.8 10-5.8 21.2-10 33.6-10 19.7 0 26.8 10.1 26.8 29.6v109.4c0 10.6-1.3 13.5-11.8 14.8-3.4.4-5.9 3.3-5.9 6.7v.6c0 3.7 3 6.7 6.7 6.7H910c3.7 0 6.7-3 6.7-6.7v-.6c0-3.4-2.6-6.3-5.9-6.7-10.7-1.3-12.6-4.2-12.6-14.8V179.3c0-40.9-19.3-61.5-54.7-61.5-25 0-43.6 11.2-57.6 24.7-4.2 4.1-11.3 1-11.3-4.9V35c0-3.7-3-6.7-6.7-6.7h-2.2c-.5 0-1.1.1-1.6.2l-65.5 16.2c-3 .7-5.1 3.4-5.1 6.6 0 2.5 1.4 4.8 3.6 6l14.1 7.4c2.2 1.2 3.6 3.5 3.6 6v222.2zm-245.1 0c0 10.6-1.8 13.5-12.6 14.8-3.4.4-5.9 3.3-5.9 6.7v.6c0 3.7 3 6.7 6.7 6.7h82.7c3.7 0 6.7-3 6.7-6.7v-.6c0-3.4-2.6-6.3-5.9-6.7-10.5-1.3-11.8-4.2-11.8-14.8V169.7c0-2.4 1.2-4.6 3.3-5.8 10-5.8 21.2-10 33.6-10 19.7 0 26.8 10.1 26.8 29.6v109.4c0 10.6-1.3 13.5-11.8 14.8-3.4.4-5.9 3.3-5.9 6.7v.5c0 3.8 3 6.8 6.7 6.8H665c3.7 0 6.7-3 6.7-6.7v-.6c0-3.4-2.6-6.3-5.9-6.7-10.7-1.3-12.6-4.2-12.6-14.8V179.3c0-40.9-19.3-61.5-54.7-61.5-25 0-43.6 11.2-57.6 24.7-4.2 4.1-11.3 1-11.3-4.9V35c0-3.7-3-6.7-6.7-6.7h-2.2c-.5 0-1.1.1-1.6.2l-65.5 16.2c-3 .7-5.1 3.4-5.1 6.6 0 2.5 1.4 4.8 3.6 6l14 7.4c2.2 1.2 3.6 3.5 3.6 6v222.2zM53 32.4C40.8 49.1 31.1 67.6 24.3 87c-3.3 9.7-6.1 19.7-7.8 29.8-2 10.1-2.9 20.3-3.3 30.5-1.3 41 10.8 81.8 33 115.8 22.4 33.9 54.7 61.2 92.3 77.3 9.4 4 19.1 7.4 29.1 9.8 9.9 2.6 20.1 4.4 30.3 5.4 20.5 2.1 41.3.9 61.6-3.1 2.1-.4 4.2 1 4.7 3.1.4 2.1-.9 4.1-2.9 4.6-20.9 5.4-42.6 7.4-64.3 6.2-10.8-.7-21.6-2-32.2-4.4-10.6-2.2-21.1-5.3-31.3-9.2-2.5-1-5.1-1.9-7.6-3l-7.5-3.3c-4.9-2.4-9.8-4.8-14.5-7.6-9.5-5.4-18.6-11.5-27.1-18.5S60.3 306 53 297.8c-7.3-8.2-13.9-17-19.9-26.1-11.8-18.4-20.8-38.8-26.3-59.9-1.5-5.3-2.5-10.7-3.6-16-.8-5.4-1.7-10.8-2.2-16.2-1-10.9-1.4-21.8-.7-32.7.7-10.9 2-21.7 4.4-32.3C7 103.8 10.2 93.4 14 83.2c4-10.1 8.6-19.9 14.1-29.2 5.4-9.4 11.7-18.2 18.5-26.6 1.4-1.8 4-2 5.8-.6 1.6 1.4 2 3.9.6 5.6z"/><path class="st0" d="M156.8 7.4c-10.7 4.4-20.9 10-30.5 16.4-9.5 6.5-18.3 14-26.3 22.2-15.9 16.6-27.9 36.6-35.3 58.2l-2.5 8.2c-.8 2.7-1.3 5.5-2 8.3-.7 2.8-1.1 5.6-1.6 8.4-.6 2.8-.8 5.6-1.2 8.4-1.3 11.3-1.3 22.7 0 34 1.2 11.3 3.7 22.4 7.3 33.1 3.6 10.7 8.3 21.1 14.1 30.7 5.8 9.7 12.7 18.7 20.4 27 7.7 8.3 16.3 15.7 25.6 22.1 9.3 6.5 19.3 11.9 29.7 16.3 10.5 4.4 21.4 7.7 32.6 9.7 22.4 4.1 45.8 3.3 68-2.6 22.2-5.8 43.2-16.6 61.1-31.2 1.7-1.4 4.2-1.1 5.6.6 1.4 1.7 1.1 4.1-.4 5.5-18.1 16.3-40 28.4-63.5 35.4-23.5 7.1-48.6 8.9-73 5.3-12.2-1.7-24.3-4.9-35.9-9.3-11.6-4.4-22.7-10.1-33.1-17-20.7-13.8-38.1-32.4-50.8-53.8-12.8-21.4-20.4-45.7-22.7-70.4-2.3-24.8 1.5-49.8 9.8-73 8.6-23.1 22.2-44.4 39.7-61.5C109.5 21.2 130.8 8.1 153.8.3c2-.7 4.2.4 4.9 2.4 1 1.8 0 3.9-1.9 4.7z"/><path class="st0" d="M244.1 44.9c-11.7-2.8-23.6-4-35.5-3.4-5.9.3-11.8 1.1-17.6 2.3-5.8 1.2-11.5 2.8-17 4.9-5.5 2-10.9 4.6-16 7.4-5.2 2.8-10.1 6.1-14.7 9.7-9.3 7.2-17.4 15.9-24 25.5-13.2 19.3-20 42.8-19.7 66 .4 23.2 8 46.3 21.8 65 3.4 4.7 7.2 9.1 11.3 13.2 4 4.2 8.5 8 13.1 11.4 9.3 6.9 19.8 12.3 30.7 16.1 22 7.6 46.4 8.4 68.9 1.8 22.5-6.6 43.1-20.3 57.8-38.9 14.7-18.6 23.5-41.9 24.9-65.8.1-2.2 2-3.9 4.2-3.7 2.1.1 3.8 1.9 3.8 4-.2 25.6-8.9 51.2-24.4 72.1-15.4 20.9-37.6 36.7-62.4 44.7-6.2 2-12.6 3.5-19.1 4.6-6.5 1-13 1.5-19.6 1.5-6.6 0-13.1-.6-19.6-1.6-6.5-1-12.9-2.6-19.2-4.6-25.1-8-47.5-24.4-63-45.7-15.5-21.3-24.2-47.6-24.1-74-.1-26.4 8.4-52.5 23.7-73.8 15.3-21.3 37.2-37.6 61.9-45.8 24.6-8.5 51.8-8.5 76.2-.6 2.1.7 3.3 2.9 2.6 5-.9 2.1-3 3.2-5 2.7z"/><path class="st0" d="M212.2 200.9c-23.9 0-43.3-19.4-43.3-43.3s19.4-43.3 43.3-43.3 43.3 19.4 43.3 43.3-19.4 43.3-43.3 43.3zm0-74.1c-17 0-30.8 13.8-30.8 30.8s13.8 30.8 30.8 30.8 30.8-13.8 30.8-30.8-13.8-30.8-30.8-30.8z"/><path class="st0" d="M212.2 239.9c-45.4 0-82.3-36.9-82.3-82.3s36.9-82.3 82.3-82.3 82.3 36.9 82.3 82.3-36.9 82.3-82.3 82.3zm0-152.1c-38.5 0-69.8 31.3-69.8 69.8s31.3 69.8 69.8 69.8 69.8-31.3 69.8-69.8-31.3-69.8-69.8-69.8z"/></svg>