<?xml version="1.0" encoding="UTF-8"?>
<svg width="600" height="75" version="1.1" xmlns="http://www.w3.org/2000/svg">
 <path d="m575.27 62.21-10.816-17.448-10.402 17.448h-14.239l17.309-26.105-15.908-23.312h14.373l9.2174 15.357 9.0687-15.357h13.89l-15.632 23.312 17.866 26.105zm-55.625 0-19.894-32.314h-0.20892l0.27974 32.314h-11.586v-49.416h13.61l19.821 32.246h0.20893l-0.27975-32.246h11.586v49.416zm-55.698 2e-3h12.004v-49.416h-12.004zm-39.085-2e-3v-49.416h12.006v39.017h19.125v10.399zm-9.6282-24.917c0 3.9094-0.67458 7.4788-2.022 10.714-1.3527 3.2351-3.2277 6.0028-5.6215 8.3059-2.3955 2.3031-5.2461 4.0822-8.5499 5.3371-3.3056 1.2578-6.8856 1.8867-10.747 1.8867-3.8633 0-7.4327-0.62889-10.714-1.8867-3.2808-1.255-6.119-3.034-8.5163-5.3371-2.3991-2.3031-4.2723-5.0708-5.6179-8.3059-1.3509-3.2351-2.0255-6.8045-2.0255-10.714 0-3.9547 0.67458-7.5269 2.0255-10.714 1.3456-3.187 3.2188-5.898 5.6179-8.1303 2.3973-2.2351 5.2355-3.9547 8.5163-5.1671 3.2808-1.2068 6.8502-1.813 10.714-1.813 3.8615 0 7.4416 0.60624 10.747 1.813 3.3038 1.2125 6.1544 2.932 8.5499 5.1671 2.3938 2.2323 4.2688 4.9434 5.6215 8.1303 1.3474 3.187 2.022 6.7592 2.022 10.714zm-12.773-1.7e-4c0-2.1388-0.3488-4.1417-1.0446-6.0028-0.70113-1.8612-1.6661-3.4533-2.8984-4.7819-1.2323-1.3258-2.7196-2.3711-4.4706-3.1388-1.7458-0.76771-3.6597-1.153-5.7542-1.153-2.0928 0-4.0014 0.38527-5.7224 1.153-1.7245 0.7677-3.2118 1.813-4.4671 3.1388-1.2571 1.3286-2.2256 2.9207-2.8984 4.7819s-1.011 3.864-1.011 6.0028c0 2.2323 0.34879 4.2918 1.0482 6.1756 0.6976 1.8839 1.6625 3.5042 2.8931 4.8527 1.2341 1.3484 2.7107 2.4079 4.4352 3.1756 1.721 0.76771 3.6296 1.1501 5.7224 1.1501 2.0946 0 3.9979-0.38243 5.7224-1.1501 1.721-0.7677 3.21-1.8272 4.4688-3.1756 1.2535-1.3484 2.2309-2.9688 2.932-4.8527 0.69582-1.8838 1.0446-3.9433 1.0446-6.1756zm-59.465 24.917-10.729-19.612h-4.0669v19.612h-11.657v-49.416h18.844c2.3743 0 4.6884 0.24646 6.9458 0.73371 2.2557 0.49009 4.2812 1.3144 6.0747 2.4788 1.79 1.1643 3.2206 2.6997 4.2918 4.6062 1.0676 1.9094 1.6023 4.2804 1.6023 7.119 0 3.3513-0.90652 6.1671-2.7196 8.4448-1.8148 2.2804-4.329 3.9094-7.5372 4.8867l12.911 21.147zm-0.4869-34.27c0-1.1643-0.2461-2.1048-0.74185-2.8272-0.4869-0.71954-1.119-1.2804-1.8927-1.6742-0.77018-0.3966-1.6342-0.66289-2.5938-0.80453-0.95609-0.13881-1.8821-0.20963-2.7691-0.20963h-6.381v11.518h5.6817c0.98088 0 1.9865-0.0821 3.017-0.24646 1.0251-0.16147 1.96-0.45326 2.8045-0.86969 0.83923-0.41926 1.5297-1.0255 2.068-1.8159 0.53647-0.79037 0.80736-1.8159 0.80736-3.0708zm-73.716-15.145v10.19h13.961v39.224h11.935v-39.224h13.959v-10.19zm-40.606-2e-3v49.416h34.479v-10.19h-22.964v-10.258h20.522v-9.5609h-20.522v-9.3569h21.709v-10.051zm-29.122 0-10.763 31.688h-0.27975l-11.25-31.688h-16.986v49.416h11.244l-0.28046-34.969h0.20964l12.493 34.969h8.3746l12.843-34.969h0.20893l-0.27975 34.969h11.725v-49.416z"/>
 <path d="m52.82 62.21h-42.816v-10.768h41.142l36.589-36.697c2.5921-2.5921 6.8074-2.5921 9.4023 0l17.516 17.516h22.572v10.768h-24.357c-1.779 0-3.4504-0.69405-4.7054-1.9518l-15.728-15.728-34.912 34.915c-1.2578 1.255-2.9264 1.9462-4.7026 1.9462zm84.405 0h-42.799c-1.7762 0-3.4448-0.69122-4.6997-1.9462l-34.915-34.915-15.731 15.731c-1.255 1.255-2.9235 1.9462-4.6997 1.9462h-24.377v-10.765h22.592l17.516-17.516c2.5921-2.5921 6.8074-2.5921 9.4023 0l36.586 36.697h41.125z"/>
</svg>
